0
SECTION
2
HEADER
9
$INSUNITS
70
4
9
$ACADVER
1
AC1027
0
ENDSEC
0
SECTION
2
TABLES
0
TABLE
2
LAYER
70
6
0
LAYER
2
0
70
0
62
7
6
CONTINUOUS
0
LAYER
2
A-AREA-ROOM
70
0
62
1
6
CONTINUOUS
0
LAYER
2
A-ANNO-ROOM
70
0
62
2
6
CONTINUOUS
0
LAYER
2
A-DOOR
70
0
62
3
6
CONTINUOUS
0
LAYER
2
A-GLAZ
70
0
62
4
6
CONTINUOUS
0
LAYER
2
A-WALL
70
0
62
5
6
CONTINUOUS
0
ENDTAB
0
ENDSEC
0
SECTION
2
BLOCKS
0
BLOCK
2
DR-SINGLE-900
70
0
10
0
20
0
3
DR-SINGLE-900
0
LINE
8
0
10
0
20
0
11
100
21
0
0
ENDBLK
0
BLOCK
2
WIN-2400
70
0
10
0
20
0
3
WIN-2400
0
LINE
8
0
10
0
20
0
11
100
21
0
0
ENDBLK
0
ENDSEC
0
SECTION
2
ENTITIES
0
LWPOLYLINE
8
A-AREA-ROOM
90
4
70
1
10
0
20
0
10
5000
20
0
10
5000
20
4000
10
0
20
4000
0
LWPOLYLINE
8
A-AREA-ROOM
90
4
70
1
10
5000
20
0
10
8500
20
0
10
8500
20
4000
10
5000
20
4000
0
LWPOLYLINE
8
A-AREA-ROOM
90
4
70
1
10
0
20
4000
10
5000
20
4000
10
5000
20
8500
10
0
20
8500
0
LINE
8
A-WALL
10
0
20
0
11
8500
21
0
0
LINE
8
A-WALL
10
8500
20
0
11
8500
21
4000
0
LINE
8
A-WALL
10
0
20
0
11
0
21
8500
0
TEXT
8
A-ANNO-ROOM
10
2500
20
2000
30
0
40
200
1
LIVING ROOM
0
TEXT
8
A-ANNO-ROOM
10
6750
20
2000
30
0
40
200
1
KITCHEN
0
TEXT
8
A-ANNO-ROOM
10
2500
20
6250
30
0
40
200
1
MASTER BEDROOM
0
INSERT
8
A-DOOR
2
DR-SINGLE-900
10
2500
20
0
30
0
50
0
0
INSERT
8
A-DOOR
2
DR-SINGLE-900
10
7250
20
0
30
0
50
0
0
INSERT
8
A-DOOR
2
DR-SINGLE-900
10
5000
20
2000
30
0
50
0
0
INSERT
8
A-DOOR
2
DR-SINGLE-900
10
2500
20
4000
30
0
50
0
0
INSERT
8
A-DOOR
2
DR-SINGLE-900
10
5000
20
6250
30
0
50
0
0
INSERT
8
A-GLAZ
2
WIN-2400
10
1500
20
0
30
0
50
0
0
INSERT
8
A-GLAZ
2
WIN-2400
10
4000
20
0
30
0
50
0
0
INSERT
8
A-GLAZ
2
WIN-2400
10
8500
20
1500
30
0
50
0
0
INSERT
8
A-GLAZ
2
WIN-2400
10
8500
20
3000
30
0
50
0
0
INSERT
8
A-GLAZ
2
WIN-2400
10
0
20
6000
30
0
50
0
0
ENDSEC
0
EOF
